<svg width="16" height="17" viewBox="0 0 16 17" fill="none" xmlns="http://www.w3.org/2000/svg">
<g id="Calendar">
<path id="Vector (Stroke)" fill-rule="evenodd" clip-rule="evenodd" d="M5 1.33398C5.36819 1.33398 5.66667 1.63246 5.66667 2.00065V2.33399L10.3333 2.334V2.00065C10.3333 1.63246 10.6318 1.33398 11 1.33398C11.3682 1.33398 11.6667 1.63246 11.6667 2.00065V2.334L12.5 2.33401C13.9728 2.33401 15.1667 3.52792 15.1667 5.00067V13.0006C15.1667 14.4734 13.9728 15.6673 12.5 15.6673L3.5 15.6673C2.02724 15.6673 0.833336 14.4734 0.833336 13.0007L0.833336 6.50078L0.833336 5.00065C0.833336 3.52789 2.02725 2.33398 3.50001 2.33399L4.33334 2.33399V2.00065C4.33334 1.63246 4.63181 1.33398 5 1.33398ZM4.33334 3.66732L3.50001 3.66732C2.76362 3.66732 2.16667 4.26427 2.16667 5.00065V5.83398H13.8333V5.00067C13.8333 4.26429 13.2364 3.66734 12.5 3.66734L11.6667 3.66734V4.00065C11.6667 4.36884 11.3682 4.66732 11 4.66732C10.6318 4.66732 10.3333 4.36884 10.3333 4.00065V3.66734L5.66667 3.66733V4.00065C5.66667 4.36884 5.36819 4.66732 5 4.66732C4.63181 4.66732 4.33334 4.36884 4.33334 4.00065V3.66732ZM13.8333 7.16732H2.16667L2.16667 13.0007C2.16667 13.737 2.76362 14.334 3.5 14.334L12.5 14.334C13.2364 14.334 13.8333 13.737 13.8333 13.0006V7.16732Z" fill="#787A80"/>
</g>
</svg>
