<svg width="16" height="17" viewBox="0 0 16 17" fill="none" xmlns="http://www.w3.org/2000/svg">
<g id="Clock">
<g id="Union">
<path d="M8.66666 4.83268C8.66666 4.46449 8.36819 4.16602 8 4.16602C7.63181 4.16602 7.33333 4.46449 7.33333 4.83268V8.49935C7.33333 8.67616 7.40357 8.84573 7.52859 8.97075L9.52859 10.9708C9.78894 11.2311 10.2111 11.2311 10.4714 10.9708C10.7318 10.7104 10.7318 10.2883 10.4714 10.0279L8.66666 8.22321V4.83268Z" fill="#787A80"/>
<path fill-rule="evenodd" clip-rule="evenodd" d="M8 1.16602C3.94991 1.16602 0.666664 4.44926 0.666664 8.49935C0.666664 12.5494 3.94991 15.8327 8 15.8327C12.0501 15.8327 15.3333 12.5494 15.3333 8.49935C15.3333 4.44926 12.0501 1.16602 8 1.16602ZM2 8.49935C2 5.18564 4.68629 2.49935 8 2.49935C11.3137 2.49935 14 5.18564 14 8.49935C14 11.8131 11.3137 14.4993 8 14.4993C4.68629 14.4993 2 11.8131 2 8.49935Z" fill="#787A80"/>
</g>
</g>
</svg>
